<?xml version="1.0" encoding="UTF-8"?>
<svg id="Layer_1" xmlns="http://www.w3.org/2000/svg" version="1.1" viewBox="0 0 800 800">
  <!-- Generator: Adobe Illustrator 29.7.0, SVG Export Plug-In . SVG Version: 2.1.1 Build 138)  -->
  <defs>
    <style>
      .st0 {
        fill: #898989;
      }
    </style>
  </defs>
  <path class="st0" d="M333.33,585l-59,57.33c-32.22,32.22-84.45,32.22-116.67,0s-32.22-84.45,0-116.67l151.33-151.67c30.85-30.95,80.55-32.27,113-3l4,3.33c13.16,12.89,34.28,12.66,47.17-.5s12.66-34.28-.5-47.17c-1.88-2.43-3.88-4.77-6-7-59.05-51.37-147.81-48.17-203,7.33l-153.33,151.67c-55.8,60.73-51.8,155.2,8.94,211,57.13,52.49,144.93,52.49,202.06,0l57.67-56.33c12.44-13.57,11.52-34.66-2.05-47.1-12.21-11.19-30.79-11.72-43.62-1.24ZM689.67,110.33c-58.37-58.01-152.63-58.01-211,0l-57.67,56.33c-12.44,13.57-11.52,34.66,2.05,47.1,12.21,11.19,30.79,11.72,43.62,1.24l57.67-57.33c32.22-32.22,84.45-32.22,116.67,0s32.22,84.45,0,116.67l-151.33,151.67c-30.85,30.95-80.55,32.27-113,3l-4-3.33c-13.16-12.89-34.28-12.66-47.17.5s-12.66,34.28.5,47.17c2.42,2.48,4.98,4.81,7.67,7,59.11,51.21,147.74,48,203-7.33l151.67-151.67c58.38-58,58.98-152.26,1.33-211Z"/>
</svg>